<?xml version="1.0" encoding="UTF-8"?>
<svg xmlns="http://www.w3.org/2000/svg" xmlns:xlink="http://www.w3.org/1999/xlink" width="24px" height="24px" viewBox="0 0 24 24" version="1.1">
<g id="surface1">
<path style=" stroke:none;fill-rule:nonzero;fill:rgb(100%,100%,100%);fill-opacity:1;" d="M 19.128906 14.972656 L 9.3125 5.679688 C 9.195312 5.570312 9.078125 5.570312 8.960938 5.570312 L 4.050781 5.902344 C 3.703125 5.902344 3.46875 6.121094 3.351562 6.5625 L 3 11.097656 C 3 11.210938 3 11.429688 3.117188 11.542969 L 12.933594 20.835938 C 13.167969 21.054688 13.519531 21.054688 13.753906 20.835938 L 19.128906 15.746094 C 19.363281 15.523438 19.363281 15.191406 19.128906 14.972656 Z M 7.324219 9.660156 C 6.855469 10.105469 6.15625 10.105469 5.804688 9.660156 C 5.453125 9.21875 5.335938 8.554688 5.804688 8.222656 C 6.273438 7.78125 6.972656 7.78125 7.324219 8.222656 C 7.792969 8.554688 7.792969 9.21875 7.324219 9.660156 Z M 21 11.875 C 21 12.207031 20.882812 12.539062 20.648438 12.757812 L 19.363281 13.976562 L 18.777344 13.421875 L 20.066406 12.207031 C 20.183594 12.09375 20.183594 11.984375 20.183594 11.875 C 20.183594 11.761719 20.183594 11.652344 20.066406 11.542969 L 11.183594 3.136719 C 11.066406 3.023438 10.949219 3.023438 10.832031 3.023438 L 6.507812 3.355469 C 6.15625 3.355469 5.921875 3.578125 5.921875 3.910156 L 5.804688 4.90625 L 4.988281 4.90625 L 5.105469 3.796875 C 5.222656 3.136719 5.6875 2.691406 6.390625 2.582031 L 10.714844 2.25 C 11.183594 2.25 11.53125 2.359375 11.765625 2.582031 L 20.648438 10.988281 C 20.882812 11.210938 21 11.542969 21 11.875 Z M 21 11.875 "/>
</g>
</svg>
