<!DOCTYPE svg PUBLIC "-//W3C//DTD SVG 1.1//EN" "http://www.w3.org/Graphics/SVG/1.1/DTD/svg11.dtd">
<!-- Uploaded to: SVG Repo, www.svgrepo.com, Transformed by: SVG Repo Mixer Tools -->
<svg fill="#FFFFFF" width="64px" height="64px" viewBox="0 0 32 32" version="1.1" xmlns="http://www.w3.org/2000/svg" stroke="#FFFFFF">
<g id="SVGRepo_bgCarrier" stroke-width="0"/>
<g id="SVGRepo_tracerCarrier" stroke-linecap="round" stroke-linejoin="round"/>
<g id="SVGRepo_iconCarrier"> <title>subtitles</title> <path d="M28 5.265h-24c-1.518 0.002-2.748 1.232-2.75 2.75v15.97c0.002 1.518 1.232 2.748 2.75 2.75h24c1.518-0.002 2.748-1.232 2.75-2.75v-15.97c-0.002-1.518-1.232-2.748-2.75-2.75h-0zM29.25 23.984c-0.001 0.69-0.56 1.249-1.25 1.25h-24c-0.69-0.001-1.249-0.56-1.25-1.25v-15.97c0.001-0.69 0.56-1.249 1.25-1.25h24c0.69 0.001 1.249 0.56 1.25 1.25v0zM10.236 11.725c0.017-0 0.036-0 0.056-0 0.838 0 1.616 0.257 2.26 0.696l-0.014-0.009c0.672 0.445 1.196 1.065 1.512 1.797l0.010 0.026c0.094 0.215 0.305 0.363 0.551 0.363 0.088 0 0.172-0.019 0.248-0.054l-0.004 0.002 0.397-0.177c0.211-0.096 0.356-0.305 0.356-0.548 0-0.088-0.019-0.171-0.053-0.246l0.002 0.004c-0.463-1.040-1.189-1.893-2.095-2.497l-0.021-0.013c-0.886-0.598-1.978-0.955-3.153-0.955-0.018 0-0.037 0-0.055 0l0.003-0c-0.029-0.001-0.064-0.001-0.098-0.001-1.586 0-3.020 0.655-4.045 1.709l-0.001 0.001c-1.051 1.037-1.701 2.477-1.701 4.069 0 0.038 0 0.077 0.001 0.115l-0-0.006c-0.001 0.032-0.001 0.069-0.001 0.106 0 1.594 0.65 3.036 1.7 4.075l0 0c1.027 1.054 2.461 1.708 4.047 1.708 0.035 0 0.069-0 0.104-0.001l-0.005 0c0.015 0 0.033 0 0.052 0 1.175 0 2.267-0.357 3.173-0.968l-0.020 0.013c0.928-0.617 1.654-1.47 2.103-2.475l0.015-0.037c0.032-0.071 0.051-0.155 0.051-0.242 0-0.243-0.145-0.453-0.353-0.547l-0.004-0.002-0.397-0.176c-0.072-0.032-0.155-0.050-0.243-0.050-0.079 0-0.154 0.015-0.223 0.042l0.004-0.001c-0.15 0.060-0.267 0.173-0.331 0.316l-0.002 0.004c-0.325 0.758-0.849 1.379-1.506 1.815l-0.015 0.009c-0.631 0.431-1.409 0.688-2.248 0.688-0.019 0-0.038-0-0.057-0l0.003 0c-0.025 0.001-0.054 0.001-0.084 0.001-1.14 0-2.169-0.475-2.899-1.238l-0.001-0.001c-0.762-0.746-1.235-1.785-1.235-2.935 0-0.037 0-0.073 0.001-0.11l-0 0.005c-0.001-0.031-0.001-0.067-0.001-0.104 0-1.149 0.473-2.188 1.234-2.933l0.001-0.001c0.733-0.764 1.761-1.238 2.901-1.238 0.029 0 0.058 0 0.087 0.001l-0.004-0zM22.236 11.725c0.016-0 0.036-0 0.055-0 0.838 0 1.617 0.256 2.262 0.695l-0.014-0.009c0.672 0.445 1.196 1.066 1.511 1.798l0.010 0.026c0.064 0.148 0.182 0.262 0.328 0.32l0.004 0.001c0.065 0.026 0.14 0.041 0.218 0.041 0.088 0 0.172-0.019 0.248-0.053l-0.004 0.002 0.396-0.177c0.211-0.096 0.356-0.305 0.356-0.548 0-0.088-0.019-0.171-0.053-0.246l0.002 0.004c-0.462-1.041-1.188-1.894-2.094-2.498l-0.021-0.013c-0.905-0.605-2.018-0.966-3.215-0.966-3.223 0-5.835 2.612-5.835 5.835 0 0.022 0 0.044 0 0.067l-0-0.003c-0.001 0.031-0.001 0.069-0.001 0.106 0 1.594 0.65 3.036 1.699 4.075l0 0c1.062 1.055 2.525 1.707 4.141 1.707 1.194 0 2.306-0.356 3.233-0.969l-0.022 0.014c0.928-0.617 1.654-1.47 2.101-2.475l0.015-0.037c0.032-0.071 0.051-0.154 0.051-0.242 0-0.243-0.144-0.453-0.352-0.548l-0.004-0.002-0.396-0.176c-0.071-0.033-0.155-0.052-0.243-0.052-0.079 0-0.155 0.016-0.224 0.044l0.004-0.001c-0.149 0.060-0.267 0.174-0.33 0.316l-0.002 0.004c-0.325 0.758-0.849 1.379-1.506 1.813l-0.015 0.009c-0.65 0.432-1.448 0.689-2.307 0.689-1.165 0-2.218-0.473-2.98-1.238l-0-0c-0.762-0.746-1.234-1.785-1.234-2.934 0-0.037 0-0.074 0.001-0.111l-0 0.005c-0.001-0.031-0.001-0.068-0.001-0.105 0-1.149 0.472-2.187 1.233-2.932l0.001-0.001c0.732-0.764 1.761-1.238 2.9-1.238 0.030 0 0.059 0 0.089 0.001l-0.004-0z"/> </g>
</svg>