<?xml version="1.0" encoding="UTF-8"?>
<!-- Generated by Pixelmator Pro 3.3.11 -->
<svg width="24" height="24" viewBox="0 0 24 24" xmlns="http://www.w3.org/2000/svg">
    <path id="Path" fill="#ffffff" stroke="none" d="M 4.4955 7.44088 C 3.54724 8.117871 2.77843 8.84176 2.1893 9.47978 C 0.857392 10.9222 0.857393 13.0778 2.1893 14.5202 C 3.9167 16.391001 7.18879 19 12 19 C 13.2958 19 14.4799 18.810801 15.552301 18.4977 L 13.8895 16.8349 C 13.2936 16.940901 12.6638 17 12 17 C 7.9669 17 5.18832 14.82 3.65868 13.1634 C 3.03426 12.4872 3.03426 11.5128 3.65868 10.8366 C 4.23754 10.2097 4.99526 9.50784 5.93214 8.87753 L 4.4955 7.44088 Z"/>
    <path id="path1" fill="#ffffff" stroke="none" d="M 8.53299 11.4784 C 8.50756 11.6486 8.49439 11.8227 8.49439 12 C 8.49439 13.933 10.0614 15.5 11.9944 15.5 C 12.1716 15.5 12.3458 15.4868 12.516 15.4614 L 8.53299 11.4784 Z"/>
    <path id="path2" fill="#ffffff" stroke="none" d="M 15.466101 12.4471 L 11.5473 8.528289 C 11.6937 8.50962 11.8429 8.499999 11.9944 8.499999 C 13.9274 8.499999 15.494399 10.067 15.494399 12 C 15.494399 12.1515 15.484801 12.3007 15.466101 12.4471 Z"/>
    <path id="path3" fill="#ffffff" stroke="none" d="M 18.111799 15.0928 C 19.0284 14.4702 19.7715 13.7805 20.341299 13.1634 C 20.9657 12.4872 20.9657 11.5128 20.341299 10.8366 C 18.811701 9.18002 16.0331 7 12 7 C 11.3594 7 10.7505 7.054989 10.1732 7.15415 L 8.50483 5.485819 C 9.5621 5.1826 10.7272 5 12 5 C 16.811199 5 20.0833 7.609051 21.810699 9.47978 C 23.142599 10.9222 23.142599 13.0778 21.810699 14.5202 C 21.230499 15.1486 20.476 15.8603 19.5474 16.5284 L 18.111799 15.0928 Z"/>
    <path id="path4" fill="#ffffff" stroke="none" d="M 2.00789 3.422071 C 1.61736 3.031549 1.61736 2.39838 2.00789 2.00786 C 2.39841 1.617331 3.03158 1.617331 3.4221 2.00786 L 22.000401 20.586201 C 22.391001 20.9767 22.391001 21.6099 22.000401 22.000401 C 21.6099 22.3909 20.9767 22.3909 20.586201 22.000401 L 2.00789 3.422071 Z"/>
</svg>
