<?xml version="1.0" encoding="UTF-8"?>
<!-- Generated by Pixelmator Pro 3.3.6 -->
<svg width="24" height="24" viewBox="0 0 24 24" xmlns="http://www.w3.org/2000/svg">
    <path id="Path" fill="#ffffff" stroke="none" d="M 18.557859 0.341532 L 5.442141 0.341532 C 2.62514 0.341532 0.341531 2.625187 0.341531 5.442141 L 0.341531 18.557907 C 0.341531 21.374859 2.62514 23.658468 5.442094 23.658468 L 18.557859 23.658468 C 21.374813 23.658468 23.658422 21.374859 23.658422 18.557907 L 23.658422 5.442141 C 23.658422 2.625187 21.374859 0.341532 18.557859 0.341532 Z"/>
    <path id="path1" fill="#000000" stroke="none" d="M 18.557859 24 L 5.442141 24 C 2.441344 24 0 21.558657 0 18.557859 L 0 5.442141 C 0 2.441343 2.441344 0 5.442141 0 L 18.557905 0 C 21.558657 0 24 2.441343 24 5.442141 L 24 18.557907 C 24 21.558657 21.558657 24 18.557859 24 Z M 5.442141 0.683109 C 2.818031 0.683109 0.683109 2.817984 0.683109 5.442141 L 0.683109 18.557907 C 0.683109 21.182014 2.817985 23.316938 5.442141 23.316938 L 18.557905 23.316938 C 21.182062 23.316938 23.316938 21.182014 23.316938 18.557907 L 23.316938 5.442141 C 23.316938 2.818031 21.182062 0.683109 18.557905 0.683109 C 18.557905 0.683109 5.442141 0.683109 5.442141 0.683109 Z"/>
    <path id="path2" fill="#ed1f34" stroke="none" d="M 15.886125 12 C 15.886125 14.146248 14.146248 15.886125 12 15.886125 C 9.853752 15.886125 8.113874 14.146248 8.113874 12 C 8.113874 9.853752 9.853752 8.113873 12 8.113873 C 14.146248 8.113873 15.886125 9.853752 15.886125 12 Z"/>
    <path id="path3" fill="#000000" stroke="none" d="M 12 16.227703 C 9.668813 16.227703 7.772297 14.331187 7.772297 12 C 7.772297 9.668813 9.668859 7.772299 12 7.772299 C 14.331141 7.772299 16.227703 9.668813 16.227703 12 C 16.227703 14.331187 14.331141 16.227703 12 16.227703 Z M 12 8.455406 C 10.0455 8.455406 8.455407 10.0455 8.455407 12 C 8.455407 13.954501 10.0455 15.544594 12 15.544594 C 13.954501 15.544594 15.544594 13.954501 15.544594 12 C 15.544594 10.0455 13.954501 8.455406 12 8.455406 Z"/>
</svg>
