<?xml version="1.0" encoding="UTF-8"?>
<!-- Generated by Pixelmator Pro 3.3.6 -->
<svg width="24" height="24" viewBox="0 0 24 24" xmlns="http://www.w3.org/2000/svg">
    <path id="Path" fill="#000000" stroke="none" d="M 20.9676 24 L 3.0324 24 C 1.3578 24 -0 22.6422 -0 20.9676 L -0 3.0324 C -0 1.3578 1.3578 0 3.0324 0 L 20.968201 0 C 22.6422 0 24 1.3578 24 3.0324 L 24 20.968201 C 24 22.6422 22.6422 24 20.9676 24 Z"/>
    <g id="Group">
        <path id="path1" fill="#e1351f" stroke="none" d="M 21.0348 2.854801 L 16.299 2.854801 L 13.4256 6.857401 L 14.9316 10.2264 Z"/>
        <path id="path2" fill="#e1351f" stroke="none" d="M 14.2578 21.145201 L 19.2714 21.145201 L 14.535 12.624 L 11.9196 16.2108 Z"/>
        <path id="path3" fill="#e1351f" stroke="none" d="M 10.116 2.854801 L 14.0796 11.2368 L 6.9456 21.145201 L 2.1696 21.145201 L 9.896999 11.37 L 5.142 2.854801 Z"/>
    </g>
</svg>
