<?xml version="1.0" encoding="UTF-8"?>
<!-- Generated by Pixelmator Pro 3.3.6 -->
<svg width="24" height="24" viewBox="0 0 24 24" xmlns="http://www.w3.org/2000/svg">
    <path id="Path" fill="#ffffff" stroke="none" d="M 18.557859 0.341532 L 5.442141 0.341532 C 2.625141 0.341532 0.341531 2.625141 0.341531 5.442141 L 0.341531 18.557907 C 0.341531 21.374859 2.625141 23.658468 5.442094 23.658468 L 18.557859 23.658468 C 21.374813 23.658468 23.658422 21.374859 23.658422 18.557907 L 23.658422 5.442141 C 23.658468 2.625141 21.374861 0.341532 18.557859 0.341532 Z"/>
    <g id="Group">
        <path id="path1" fill="#ed1f34" stroke="none" d="M 0.341531 15.885938 L 23.658564 15.885938 L 23.658564 18.47625 L 0.341531 18.47625 Z"/>
        <path id="path2" fill="#ed1f34" stroke="none" d="M 10.583906 10.704374 L 23.658281 10.704374 L 23.658281 13.295624 L 10.583906 13.295624 Z"/>
        <path id="path3" fill="#ed1f34" stroke="none" d="M 11.070469 5.523281 L 23.658751 5.523281 L 23.658751 8.113594 L 11.070469 8.113594 Z"/>
        <path id="path4" fill="#ed1f34" stroke="none" d="M 5.442141 23.658468 L 18.557907 23.658468 C 20.462343 23.658468 22.122749 22.614563 22.998796 21.067968 L 1.00125 21.067968 C 1.877297 22.614563 3.537703 23.658468 5.442141 23.658468 Z"/>
        <path id="path5" fill="#ed1f34" stroke="none" d="M 22.998751 2.932077 C 22.122702 1.385437 20.462296 0.341578 18.557859 0.341578 L 10.583906 0.341578 L 10.583906 2.932077 L 22.998751 2.932077 Z"/>
    </g>
    <path id="path6" fill="#164fce" stroke="none" d="M 15.705047 0.341532 L 5.442141 0.341532 C 2.625141 0.341532 0.341531 2.625141 0.341531 5.442141 L 0.341531 13.295625 L 15.705047 13.295625 L 15.705047 0.341532 L 15.705047 0.341532 Z"/>
    <g id="g1">
        <path id="path7" fill="#ffffff" stroke="none" d="M 3.820453 10.176094 C 3.820453 10.407872 3.63256 10.595766 3.400781 10.595766 C 3.169003 10.595766 2.981109 10.407872 2.981109 10.176094 C 2.981109 9.944315 3.169003 9.756422 3.400781 9.756422 C 3.63256 9.756422 3.820453 9.944315 3.820453 10.176094 Z"/>
        <path id="path8" fill="#ffffff" stroke="none" d="M 6.13186 10.176094 C 6.13186 10.407872 5.943966 10.595766 5.712188 10.595766 C 5.480409 10.595766 5.292516 10.407872 5.292516 10.176094 C 5.292516 9.944315 5.480409 9.756422 5.712188 9.756422 C 5.943966 9.756422 6.13186 9.944315 6.13186 10.176094 Z"/>
        <path id="path9" fill="#ffffff" stroke="none" d="M 8.442797 10.176094 C 8.442797 10.407872 8.254903 10.595766 8.023125 10.595766 C 7.791347 10.595766 7.603453 10.407872 7.603453 10.176094 C 7.603453 9.944315 7.791347 9.756422 8.023125 9.756422 C 8.254903 9.756422 8.442797 9.944315 8.442797 10.176094 Z"/>
        <path id="path10" fill="#ffffff" stroke="none" d="M 10.754203 10.176094 C 10.754203 10.407872 10.56631 10.595766 10.334531 10.595766 C 10.102753 10.595766 9.914859 10.407872 9.914859 10.176094 C 9.914859 9.944315 10.102753 9.756422 10.334531 9.756422 C 10.56631 9.756422 10.754203 9.944315 10.754203 10.176094 Z"/>
        <path id="path11" fill="#ffffff" stroke="none" d="M 13.065141 10.176094 C 13.065141 10.407872 12.877247 10.595766 12.645469 10.595766 C 12.413692 10.595766 12.225797 10.407872 12.225797 10.176094 C 12.225797 9.944315 12.413692 9.756422 12.645469 9.756422 C 12.877247 9.756422 13.065141 9.944315 13.065141 10.176094 Z"/>
        <path id="path12" fill="#ffffff" stroke="none" d="M 2.665078 11.295468 C 2.665078 11.527247 2.477185 11.71514 2.245406 11.71514 C 2.013628 11.71514 1.825734 11.527247 1.825734 11.295468 C 1.825734 11.06369 2.013628 10.875796 2.245406 10.875796 C 2.477185 10.875796 2.665078 11.06369 2.665078 11.295468 Z"/>
        <path id="path13" fill="#ffffff" stroke="none" d="M 4.976391 11.295468 C 4.976391 11.527247 4.788497 11.71514 4.556719 11.71514 C 4.324941 11.71514 4.137047 11.527247 4.137047 11.295468 C 4.137047 11.06369 4.324941 10.875796 4.556719 10.875796 C 4.788497 10.875796 4.976391 11.06369 4.976391 11.295468 Z"/>
        <path id="path14" fill="#ffffff" stroke="none" d="M 7.287328 11.295468 C 7.287328 11.527247 7.099435 11.71514 6.867656 11.71514 C 6.635878 11.71514 6.447985 11.527247 6.447985 11.295468 C 6.447985 11.06369 6.635878 10.875796 6.867656 10.875796 C 7.099435 10.875796 7.287328 11.06369 7.287328 11.295468 Z"/>
        <path id="path15" fill="#ffffff" stroke="none" d="M 9.598734 11.295468 C 9.598734 11.527247 9.410841 11.71514 9.179063 11.71514 C 8.947285 11.71514 8.759391 11.527247 8.759391 11.295468 C 8.759391 11.06369 8.947285 10.875796 9.179063 10.875796 C 9.410841 10.875796 9.598734 11.06369 9.598734 11.295468 Z"/>
        <path id="path16" fill="#ffffff" stroke="none" d="M 11.909672 11.295468 C 11.909672 11.527247 11.721778 11.71514 11.49 11.71514 C 11.258222 11.71514 11.070329 11.527247 11.070329 11.295468 C 11.070329 11.06369 11.258222 10.875796 11.49 10.875796 C 11.721778 10.875796 11.909672 11.06369 11.909672 11.295468 Z"/>
        <path id="path17" fill="#ffffff" stroke="none" d="M 14.221078 11.295468 C 14.221078 11.527247 14.033185 11.71514 13.801406 11.71514 C 13.569628 11.71514 13.381734 11.527247 13.381734 11.295468 C 13.381734 11.06369 13.569628 10.875796 13.801406 10.875796 C 14.033185 10.875796 14.221078 11.06369 14.221078 11.295468 Z"/>
        <path id="path18" fill="#ffffff" stroke="none" d="M 2.665078 9.057187 C 2.665078 9.288966 2.477185 9.476859 2.245406 9.476859 C 2.013628 9.476859 1.825734 9.288966 1.825734 9.057187 C 1.825734 8.825409 2.013628 8.637515 2.245406 8.637515 C 2.477185 8.637515 2.665078 8.825409 2.665078 9.057187 Z"/>
        <path id="path19" fill="#ffffff" stroke="none" d="M 4.976391 9.057187 C 4.976391 9.288966 4.788497 9.476859 4.556719 9.476859 C 4.324941 9.476859 4.137047 9.288966 4.137047 9.057187 C 4.137047 8.825409 4.324941 8.637515 4.556719 8.637515 C 4.788497 8.637515 4.976391 8.825409 4.976391 9.057187 Z"/>
        <path id="path20" fill="#ffffff" stroke="none" d="M 7.287328 9.057187 C 7.287328 9.288966 7.099435 9.476859 6.867656 9.476859 C 6.635878 9.476859 6.447985 9.288966 6.447985 9.057187 C 6.447985 8.825409 6.635878 8.637515 6.867656 8.637515 C 7.099435 8.637515 7.287328 8.825409 7.287328 9.057187 Z"/>
        <path id="path21" fill="#ffffff" stroke="none" d="M 9.598734 9.057187 C 9.598734 9.288966 9.410841 9.476859 9.179063 9.476859 C 8.947285 9.476859 8.759391 9.288966 8.759391 9.057187 C 8.759391 8.825409 8.947285 8.637515 9.179063 8.637515 C 9.410841 8.637515 9.598734 8.825409 9.598734 9.057187 Z"/>
        <path id="path22" fill="#ffffff" stroke="none" d="M 11.909672 9.057187 C 11.909672 9.288966 11.721778 9.476859 11.49 9.476859 C 11.258222 9.476859 11.070329 9.288966 11.070329 9.057187 C 11.070329 8.825409 11.258222 8.637515 11.49 8.637515 C 11.721778 8.637515 11.909672 8.825409 11.909672 9.057187 Z"/>
        <path id="path23" fill="#ffffff" stroke="none" d="M 14.221078 9.057187 C 14.221078 9.288966 14.033185 9.476859 13.801406 9.476859 C 13.569628 9.476859 13.381734 9.288966 13.381734 9.057187 C 13.381734 8.825409 13.569628 8.637515 13.801406 8.637515 C 14.033185 8.637515 14.221078 8.825409 14.221078 9.057187 Z"/>
        <path id="path24" fill="#ffffff" stroke="none" d="M 3.820453 7.937813 C 3.820453 8.169591 3.63256 8.357485 3.400781 8.357485 C 3.169003 8.357485 2.981109 8.169591 2.981109 7.937813 C 2.981109 7.706034 3.169003 7.518141 3.400781 7.518141 C 3.63256 7.518141 3.820453 7.706034 3.820453 7.937813 Z"/>
        <path id="path25" fill="#ffffff" stroke="none" d="M 6.13186 7.937813 C 6.13186 8.169591 5.943966 8.357485 5.712188 8.357485 C 5.480409 8.357485 5.292516 8.169591 5.292516 7.937813 C 5.292516 7.706034 5.480409 7.518141 5.712188 7.518141 C 5.943966 7.518141 6.13186 7.706034 6.13186 7.937813 Z"/>
        <path id="path26" fill="#ffffff" stroke="none" d="M 8.442797 7.937813 C 8.442797 8.169591 8.254903 8.357485 8.023125 8.357485 C 7.791347 8.357485 7.603453 8.169591 7.603453 7.937813 C 7.603453 7.706034 7.791347 7.518141 8.023125 7.518141 C 8.254903 7.518141 8.442797 7.706034 8.442797 7.937813 Z"/>
        <path id="path27" fill="#ffffff" stroke="none" d="M 10.754203 7.937813 C 10.754203 8.169591 10.56631 8.357485 10.334531 8.357485 C 10.102753 8.357485 9.914859 8.169591 9.914859 7.937813 C 9.914859 7.706034 10.102753 7.518141 10.334531 7.518141 C 10.56631 7.518141 10.754203 7.706034 10.754203 7.937813 Z"/>
        <path id="path28" fill="#ffffff" stroke="none" d="M 13.065141 7.937813 C 13.065141 8.169591 12.877247 8.357485 12.645469 8.357485 C 12.413692 8.357485 12.225797 8.169591 12.225797 7.937813 C 12.225797 7.706034 12.413692 7.518141 12.645469 7.518141 C 12.877247 7.518141 13.065141 7.706034 13.065141 7.937813 Z"/>
        <path id="path29" fill="#ffffff" stroke="none" d="M 2.665078 6.818438 C 2.665078 7.050217 2.477185 7.23811 2.245406 7.23811 C 2.013628 7.23811 1.825734 7.050217 1.825734 6.818438 C 1.825734 6.586658 2.013628 6.398766 2.245406 6.398766 C 2.477185 6.398766 2.665078 6.586658 2.665078 6.818438 Z"/>
        <path id="path30" fill="#ffffff" stroke="none" d="M 4.976391 6.818438 C 4.976391 7.050217 4.788497 7.23811 4.556719 7.23811 C 4.324941 7.23811 4.137047 7.050217 4.137047 6.818438 C 4.137047 6.586658 4.324941 6.398766 4.556719 6.398766 C 4.788497 6.398766 4.976391 6.586658 4.976391 6.818438 Z"/>
        <path id="path31" fill="#ffffff" stroke="none" d="M 7.287328 6.818438 C 7.287328 7.050217 7.099435 7.23811 6.867656 7.23811 C 6.635878 7.23811 6.447985 7.050217 6.447985 6.818438 C 6.447985 6.586658 6.635878 6.398766 6.867656 6.398766 C 7.099435 6.398766 7.287328 6.586658 7.287328 6.818438 Z"/>
        <path id="path32" fill="#ffffff" stroke="none" d="M 9.598734 6.818438 C 9.598734 7.050217 9.410841 7.23811 9.179063 7.23811 C 8.947285 7.23811 8.759391 7.050217 8.759391 6.818438 C 8.759391 6.586658 8.947285 6.398766 9.179063 6.398766 C 9.410841 6.398766 9.598734 6.586658 9.598734 6.818438 Z"/>
        <path id="path33" fill="#ffffff" stroke="none" d="M 11.909672 6.818438 C 11.909672 7.050217 11.721778 7.23811 11.49 7.23811 C 11.258222 7.23811 11.070329 7.050217 11.070329 6.818438 C 11.070329 6.586658 11.258222 6.398766 11.49 6.398766 C 11.721778 6.398766 11.909672 6.586658 11.909672 6.818438 Z"/>
        <path id="path34" fill="#ffffff" stroke="none" d="M 14.221078 6.818438 C 14.221078 7.050217 14.033185 7.23811 13.801406 7.23811 C 13.569628 7.23811 13.381734 7.050217 13.381734 6.818438 C 13.381734 6.586658 13.569628 6.398766 13.801406 6.398766 C 14.033185 6.398766 14.221078 6.586658 14.221078 6.818438 Z"/>
        <path id="path35" fill="#ffffff" stroke="none" d="M 3.820453 5.699532 C 3.820453 5.931311 3.63256 6.119204 3.400781 6.119204 C 3.169003 6.119204 2.981109 5.931311 2.981109 5.699532 C 2.981109 5.467752 3.169003 5.27986 3.400781 5.27986 C 3.63256 5.27986 3.820453 5.467752 3.820453 5.699532 Z"/>
        <path id="path36" fill="#ffffff" stroke="none" d="M 6.13186 5.699532 C 6.13186 5.931311 5.943966 6.119204 5.712188 6.119204 C 5.480409 6.119204 5.292516 5.931311 5.292516 5.699532 C 5.292516 5.467752 5.480409 5.27986 5.712188 5.27986 C 5.943966 5.27986 6.13186 5.467752 6.13186 5.699532 Z"/>
        <path id="path37" fill="#ffffff" stroke="none" d="M 8.442797 5.699532 C 8.442797 5.931311 8.254903 6.119204 8.023125 6.119204 C 7.791347 6.119204 7.603453 5.931311 7.603453 5.699532 C 7.603453 5.467752 7.791347 5.27986 8.023125 5.27986 C 8.254903 5.27986 8.442797 5.467752 8.442797 5.699532 Z"/>
        <path id="path38" fill="#ffffff" stroke="none" d="M 10.754203 5.699532 C 10.754203 5.931311 10.56631 6.119204 10.334531 6.119204 C 10.102753 6.119204 9.914859 5.931311 9.914859 5.699532 C 9.914859 5.467752 10.102753 5.27986 10.334531 5.27986 C 10.56631 5.27986 10.754203 5.467752 10.754203 5.699532 Z"/>
        <path id="path39" fill="#ffffff" stroke="none" d="M 13.065141 5.699532 C 13.065141 5.931311 12.877247 6.119204 12.645469 6.119204 C 12.413692 6.119204 12.225797 5.931311 12.225797 5.699532 C 12.225797 5.467752 12.413692 5.27986 12.645469 5.27986 C 12.877247 5.27986 13.065141 5.467752 13.065141 5.699532 Z"/>
        <path id="path40" fill="#ffffff" stroke="none" d="M 2.665078 4.580156 C 2.665078 4.811935 2.477185 4.999828 2.245406 4.999828 C 2.013628 4.999828 1.825734 4.811935 1.825734 4.580156 C 1.825734 4.348377 2.013628 4.160484 2.245406 4.160484 C 2.477185 4.160484 2.665078 4.348377 2.665078 4.580156 Z"/>
        <path id="path41" fill="#ffffff" stroke="none" d="M 4.976391 4.580156 C 4.976391 4.811935 4.788497 4.999828 4.556719 4.999828 C 4.324941 4.999828 4.137047 4.811935 4.137047 4.580156 C 4.137047 4.348377 4.324941 4.160484 4.556719 4.160484 C 4.788497 4.160484 4.976391 4.348377 4.976391 4.580156 Z"/>
        <path id="path42" fill="#ffffff" stroke="none" d="M 7.287328 4.580156 C 7.287328 4.811935 7.099435 4.999828 6.867656 4.999828 C 6.635878 4.999828 6.447985 4.811935 6.447985 4.580156 C 6.447985 4.348377 6.635878 4.160484 6.867656 4.160484 C 7.099435 4.160484 7.287328 4.348377 7.287328 4.580156 Z"/>
        <path id="path43" fill="#ffffff" stroke="none" d="M 9.598734 4.580156 C 9.598734 4.811935 9.410841 4.999828 9.179063 4.999828 C 8.947285 4.999828 8.759391 4.811935 8.759391 4.580156 C 8.759391 4.348377 8.947285 4.160484 9.179063 4.160484 C 9.410841 4.160484 9.598734 4.348377 9.598734 4.580156 Z"/>
        <path id="path44" fill="#ffffff" stroke="none" d="M 11.909672 4.580156 C 11.909672 4.811935 11.721778 4.999828 11.49 4.999828 C 11.258222 4.999828 11.070329 4.811935 11.070329 4.580156 C 11.070329 4.348377 11.258222 4.160484 11.49 4.160484 C 11.721778 4.160484 11.909672 4.348377 11.909672 4.580156 Z"/>
        <path id="path45" fill="#ffffff" stroke="none" d="M 14.221078 4.580156 C 14.221078 4.811935 14.033185 4.999828 13.801406 4.999828 C 13.569628 4.999828 13.381734 4.811935 13.381734 4.580156 C 13.381734 4.348377 13.569628 4.160484 13.801406 4.160484 C 14.033185 4.160484 14.221078 4.348377 14.221078 4.580156 Z"/>
        <path id="path46" fill="#ffffff" stroke="none" d="M 3.820453 3.460968 C 3.820453 3.692747 3.63256 3.88064 3.400781 3.88064 C 3.169003 3.88064 2.981109 3.692747 2.981109 3.460968 C 2.981109 3.229191 3.169003 3.041298 3.400781 3.041298 C 3.63256 3.041298 3.820453 3.229191 3.820453 3.460968 Z"/>
        <path id="path47" fill="#ffffff" stroke="none" d="M 6.13186 3.460968 C 6.13186 3.692747 5.943966 3.88064 5.712188 3.88064 C 5.480409 3.88064 5.292516 3.692747 5.292516 3.460968 C 5.292516 3.229191 5.480409 3.041298 5.712188 3.041298 C 5.943966 3.041298 6.13186 3.229191 6.13186 3.460968 Z"/>
        <path id="path48" fill="#ffffff" stroke="none" d="M 8.442797 3.460968 C 8.442797 3.692747 8.254903 3.88064 8.023125 3.88064 C 7.791347 3.88064 7.603453 3.692747 7.603453 3.460968 C 7.603453 3.229191 7.791347 3.041298 8.023125 3.041298 C 8.254903 3.041298 8.442797 3.229191 8.442797 3.460968 Z"/>
        <path id="path49" fill="#ffffff" stroke="none" d="M 10.754203 3.460968 C 10.754203 3.692747 10.56631 3.88064 10.334531 3.88064 C 10.102753 3.88064 9.914859 3.692747 9.914859 3.460968 C 9.914859 3.229191 10.102753 3.041298 10.334531 3.041298 C 10.56631 3.041298 10.754203 3.229191 10.754203 3.460968 Z"/>
        <path id="path50" fill="#ffffff" stroke="none" d="M 13.065141 3.460968 C 13.065141 3.692747 12.877247 3.88064 12.645469 3.88064 C 12.413692 3.88064 12.225797 3.692747 12.225797 3.460968 C 12.225797 3.229191 12.413692 3.041298 12.645469 3.041298 C 12.877247 3.041298 13.065141 3.229191 13.065141 3.460968 Z"/>
        <path id="path51" fill="#ffffff" stroke="none" d="M 2.665078 2.341734 C 2.665078 2.573513 2.477185 2.761406 2.245406 2.761406 C 2.013628 2.761406 1.825734 2.573513 1.825734 2.341734 C 1.825734 2.109957 2.013628 1.922062 2.245406 1.922062 C 2.477185 1.922062 2.665078 2.109957 2.665078 2.341734 Z"/>
        <path id="path52" fill="#ffffff" stroke="none" d="M 4.976391 2.341734 C 4.976391 2.573513 4.788497 2.761406 4.556719 2.761406 C 4.324941 2.761406 4.137047 2.573513 4.137047 2.341734 C 4.137047 2.109957 4.324941 1.922062 4.556719 1.922062 C 4.788497 1.922062 4.976391 2.109957 4.976391 2.341734 Z"/>
        <path id="path53" fill="#ffffff" stroke="none" d="M 7.287328 2.341734 C 7.287328 2.573513 7.099435 2.761406 6.867656 2.761406 C 6.635878 2.761406 6.447985 2.573513 6.447985 2.341734 C 6.447985 2.109957 6.635878 1.922062 6.867656 1.922062 C 7.099435 1.922062 7.287328 2.109957 7.287328 2.341734 Z"/>
        <path id="path54" fill="#ffffff" stroke="none" d="M 9.598734 2.341734 C 9.598734 2.573513 9.410841 2.761406 9.179063 2.761406 C 8.947285 2.761406 8.759391 2.573513 8.759391 2.341734 C 8.759391 2.109957 8.947285 1.922062 9.179063 1.922062 C 9.410841 1.922062 9.598734 2.109957 9.598734 2.341734 Z"/>
        <path id="path55" fill="#ffffff" stroke="none" d="M 11.909672 2.341734 C 11.909672 2.573513 11.721778 2.761406 11.49 2.761406 C 11.258222 2.761406 11.070329 2.573513 11.070329 2.341734 C 11.070329 2.109957 11.258222 1.922062 11.49 1.922062 C 11.721778 1.922062 11.909672 2.109957 11.909672 2.341734 Z"/>
        <path id="path56" fill="#ffffff" stroke="none" d="M 14.221078 2.341734 C 14.221078 2.573513 14.033185 2.761406 13.801406 2.761406 C 13.569628 2.761406 13.381734 2.573513 13.381734 2.341734 C 13.381734 2.109957 13.569628 1.922062 13.801406 1.922062 C 14.033185 1.922062 14.221078 2.109957 14.221078 2.341734 Z"/>
    </g>
    <path id="path57" fill="#000000" stroke="none" d="M 23.312859 2.797829 C 23.303532 2.776031 23.291906 2.755547 23.278452 2.736376 C 22.338327 1.102499 20.574421 0 18.557859 0 L 5.442141 0 C 2.441344 0 -0 2.441343 -0 5.442141 L -0 18.557907 C -0 19.517063 0.24975 20.418844 0.687141 21.202219 C 0.696469 21.223969 0.708094 21.244501 0.721547 21.263672 C 1.661672 22.897499 3.425578 23.999952 5.442141 23.999952 L 18.557907 23.999952 C 20.574469 23.999952 22.338375 22.897453 23.2785 21.263578 C 23.291952 21.244406 23.303577 21.223923 23.312906 21.202126 C 23.750298 20.418751 24.000046 19.51697 24.000046 18.557812 L 24.000046 5.442141 C 24 4.482985 23.75025 3.581203 23.312859 2.797829 Z M 20.549532 18.135094 C 20.360907 18.135094 20.208 18.288 20.208 18.476673 C 20.208 18.665344 20.360907 18.818203 20.549532 18.818203 L 23.309671 18.818203 C 23.272593 19.502344 23.090483 20.148516 22.793438 20.726391 L 1.206563 20.726391 C 0.909516 20.148516 0.727406 19.502344 0.690328 18.818203 L 18.995062 18.818203 C 19.183687 18.818203 19.336594 18.665297 19.336594 18.476673 C 19.336594 18.288 19.183687 18.135094 18.995062 18.135094 L 0.683109 18.135094 L 0.683109 16.227657 L 23.316891 16.227657 L 23.316891 18.135094 L 20.549532 18.135094 L 20.549532 18.135094 Z M 23.309671 5.181797 L 16.046625 5.181797 L 16.046625 3.273609 L 22.793438 3.273609 C 23.090483 3.851484 23.272593 4.497656 23.309671 5.181797 Z M 18.239109 8.455406 L 23.316891 8.455406 L 23.316891 10.362797 L 16.046625 10.362797 L 16.046625 8.455406 L 16.944563 8.455406 C 17.133186 8.455406 17.286093 8.3025 17.286093 8.113829 C 17.286093 7.925158 17.133186 7.772297 16.944563 7.772297 L 16.046625 7.772297 L 16.046625 5.864861 L 23.316891 5.864861 L 23.316891 7.772297 L 18.239109 7.772297 C 18.050484 7.772297 17.897532 7.925203 17.897532 8.113829 C 17.897532 8.3025 18.050436 8.455406 18.239109 8.455406 Z M 16.046625 11.045906 L 23.316891 11.045906 L 23.316891 12.954094 L 16.046625 12.954094 L 16.046625 11.045906 Z M 23.316891 13.637203 L 23.316891 15.544593 L 0.683109 15.544593 L 0.683109 13.637203 L 23.316891 13.637203 Z M 22.365562 2.5905 L 16.046625 2.5905 L 16.046625 0.683109 L 18.557907 0.683109 C 20.113218 0.683109 21.496593 1.433157 22.365562 2.5905 Z M 5.442141 0.683109 L 15.363516 0.683109 L 15.363516 12.954094 L 0.683109 12.954094 L 0.683109 5.442141 C 0.683109 2.818031 2.817984 0.683109 5.442141 0.683109 Z M 18.557859 23.316891 L 5.442141 23.316891 C 3.886781 23.316891 2.503406 22.566843 1.634437 21.4095 L 22.365562 21.4095 C 21.496593 22.566843 20.113218 23.316891 18.557859 23.316891 Z"/>
</svg>
