<?xml version="1.0" encoding="UTF-8"?>
<svg xmlns="http://www.w3.org/2000/svg" xmlns:xlink="http://www.w3.org/1999/xlink" width="24px" height="24px" viewBox="0 0 24 24" version="1.1">
<g id="surface1">
<path style="fill:none;stroke-width:3.4;stroke-linecap:round;stroke-linejoin:round;stroke:rgb(100%,100%,100%);stroke-opacity:1;stroke-miterlimit:4;" d="M 7.864583 6.922874 C 9.088542 4.495791 11.359375 0.000999 11.359375 0.000999 C 11.359375 0.000999 15.395833 0.000999 15.395833 0.000999 C 15.395833 0.000999 15.4375 8.537457 15.4375 8.537457 C 15.4375 8.537457 24 8.537457 24 8.537457 C 24 8.537457 20.583333 24.000999 20.583333 24.000999 C 20.583333 24.000999 5.192708 24.000999 5.192708 24.000999 M 5.234375 24.000999 C 5.234375 24.000999 0 24.000999 0 24.000999 C 0 24.000999 0.0208333 8.417666 0.0208333 8.417666 C 0.0208333 8.417666 7.098958 8.443707 7.098958 8.443707 C 7.098958 8.443707 7.411458 7.823916 7.864583 6.922874 " transform="matrix(-0.75,0,0,-0.75,21.1875,21.281999)"/>
<path style=" stroke:none;fill-rule:nonzero;fill:rgb(100%,100%,100%);fill-opacity:1;" d="M 16.929688 12.035156 C 16.929688 12.035156 16.921875 9.019531 16.914062 6.003906 "/>
<path style="fill:none;stroke-width:3.4;stroke-linecap:butt;stroke-linejoin:miter;stroke:rgb(100%,100%,100%);stroke-opacity:1;stroke-miterlimit:4;" d="M 0.487161 -0.000583505 C 0.487161 -0.000583505 0.498208 3.145248 0.509328 6.650454 C 0.50942 7.108787 0.509515 7.577537 0.509608 8.041079 " transform="matrix(-0.75,-0.000150495,0.000150495,-0.75,17.295058,12.034792)"/>
</g>
</svg>
